:SAMPLES-PER-SECOND 30
:FULLY-SPECIFIED
:DEGREES
124
root  -59.1988 38.7954 11.6126 -177.392 -53.3357 173.702
RightUpLeg  17.9787 -13.3232 -22.7826
RightLeg  21.6335 5.09329 1.77697
RightFoot  -12.8337 0.149404 17.183
RightToes  -1.16417e-010 0 -3.6325e-017
Spine  4.5808 4.02718 1.65659
Spine1  4.04931 4.75605 -2.47696
HEad  -15.4818 -10.2639 12.9863
LeftShoulder1  4.77327 -7.67212 -36.5723
LeftArm  -10.3286 64.8087 -27.8067
LeftForeArm  27.4397 -7.08408 -2.61906
LeftHand  -0.244104 0.0205437 5.32207
RightShoulder  2.74576 4.12156 30.0366
RightArm  -40.5219 -14.4007 16.3952
RightForeArm  -48.4703 55.3975 19.3003
RightHand  -4.28273 12.4148 -27.7036
LeftUpLeg  -25.3718 15.6033 0.0173225
LeftLeg  19.6633 6.74051 3.16434
LeftFoot  3.87363 -0.216018 1.44127
LeftToes  4.18335e-011 -7.14095e-012 4.81992e-012
125
root  -61.0331 38.3252 11.8488 -177.936 -53.1873 172.549
RightUpLeg  13.01 -7.76448 -23.134
RightLeg  35.7867 -1.3698 -1.34696
RightFoot  -9.91788 -0.231523 13.6261
RightToes  -1.16417e-010 0 -3.6325e-017
Spine  5.96277 4.41062 0.857938
Spine1  3.77308 4.75739 -0.76152
HEad  -16.398 -11.2903 12.8981
LeftShoulder1  5.02587 -7.85582 -38.0595
LeftArm  -10.3544 60.197 -29.806
LeftForeArm  29.2327 -9.01813 -3.72956
LeftHand  -0.244104 0.0205437 5.32207
RightShoulder  2.75891 4.13852 30.1223
RightArm  -39.2991 -17.6266 15.1677
RightForeArm  -50.0784 58.1637 21.4599
RightHand  -5.45969 14.5053 -31.4352
LeftUpLeg  -26.1442 15.4588 -1.5639
LeftLeg  27.6745 6.29441 3.90317
LeftFoot  3.94448 -0.30567 2.12131
LeftToes  4.18335e-011 -7.14095e-012 4.81992e-012
126
root  -62.5262 37.9236 12.0802 -178.635 -52.9436 170.398
RightUpLeg  7.2183 -3.88288 -23.9323
RightLeg  52.5773 -3.90775 -5.79323
RightFoot  -8.96684 -0.226915 7.47957
RightToes  -1.16417e-010 0 -3.6325e-017
Spine  9.16836 4.49482 -1.16312
Spine1  3.80546 4.36194 1.28586
HEad  -18.7369 -10.6221 12.7271
LeftShoulder1  5.2019 -7.69351 -40.1556
LeftArm  -11.2738 52.6881 -31.8673
LeftForeArm  31.2162 -11.2941 -4.09907
LeftHand  -0.244104 0.0205437 5.32207
RightShoulder  2.90706 4.3809 30.9038
RightArm  -39.8396 -18.1719 15.3924
RightForeArm  -50.2431 60.11 23.1963
RightHand  -5.85181 15.1564 -32.5121
LeftUpLeg  -25.0889 17.0842 -3.64596
LeftLeg  34.1521 4.99032 3.99619
LeftFoot  -0.530411 -0.295752 3.19313
LeftToes  4.18335e-011 -7.14095e-012 4.81992e-012
127
root  -63.7547 37.7555 12.266 -179.5 -54.2794 169.044
RightUpLeg  1.67155 -3.34605 -23.713
RightLeg  67.2268 -3.71698 -10.3572
RightFoot  -10.1245 -0.103998 3.38321
RightToes  -1.16417e-010 0 -3.6325e-017
Spine  11.9646 3.82865 -3.39104
Spine1  3.63256 2.98419 4.03723
HEad  -20.2203 -9.19456 12.2723
LeftShoulder1  5.45191 -7.749 -42.018
LeftArm  -13.6429 43.5878 -33.8705
LeftForeArm  33.9139 -13.6142 -3.51598
LeftHand  -0.244104 0.0205437 5.32207
RightShoulder  3.06582 4.62292 31.769
RightArm  -40.4028 -16.7568 17.2048
RightForeArm  -51.0032 60.6908 23.7795
RightHand  -5.83781 15.198 -32.3727
LeftUpLeg  -22.8912 17.9308 -5.17829
LeftLeg  37.3845 3.8028 3.49029
LeftFoot  -5.05478 -0.213951 4.41379
LeftToes  4.18335e-011 -7.14095e-012 4.81992e-012
128
root  -64.7726 37.8807 12.376 179.349 -56.9378 169.635
RightUpLeg  -4.15352 -5.88734 -21.5433
RightLeg  77.3368 -2.62011 -14.8728
RightFoot  -11.1955 -0.0772093 2.16866
RightToes  -1.16417e-010 0 -3.6325e-017
Spine  13.0585 2.81064 -4.94488
Spine1  3.19507 1.14578 7.46765
HEad  -20.0494 -8.26628 11.7017
LeftShoulder1  5.83293 -8.18227 -43.3778
LeftArm  -17.405 33.882 -35.3354
LeftForeArm  36.6365 -15.9051 -2.67918
LeftHand  -0.244104 0.0205437 5.32207
RightShoulder  3.25641 4.97759 32.4396
RightArm  -39.8132 -14.9729 19.3336
RightForeArm  -52.985 59.8342 22.9924
RightHand  -5.53337 14.6131 -31.6211
LeftUpLeg  -20.9028 17.3712 -5.54549
LeftLeg  37.8268 2.55581 2.50702
LeftFoot  -6.63594 -0.182855 5.38373
LeftToes  4.18335e-011 -7.14095e-012 4.81992e-012
129
root  -65.5574 38.291 12.4134 177.624 -59.4711 171.602
RightUpLeg  -10.1444 -9.13238 -17.6189
RightLeg  81.9241 -1.68957 -17.5672
RightFoot  -10.9358 -0.0807682 2.08356
RightToes  -1.16417e-010 0 -3.6325e-017
Spine  13.0511 2.03397 -5.7272
Spine1  3.47457 -0.371321 10.4511
HEad  -19.5972 -7.80131 11.3995
LeftShoulder1  6.29061 -8.82493 -44.4046
LeftArm  -20.7437 24.1204 -35.8188
LeftForeArm  36.9808 -19.8224 -2.58458
LeftHand  -0.244104 0.0205437 5.32207
RightShoulder  3.54264 5.56837 33.0963
RightArm  -39.0608 -13.2476 21.3576
RightForeArm  -54.4411 57.8031 21.2396
RightHand  -4.9058 13.3158 -30.0831
LeftUpLeg  -18.6749 16.5331 -4.97881
LeftLeg  35.8611 1.58082 1.59361
LeftFoot  -6.38381 -0.224398 6.05351
LeftToes  4.18335e-011 -7.14095e-012 4.81992e-012
130
root  -66.1542 38.9823 12.4307 175.283 -61.2227 174.091
RightUpLeg  -15.3021 -10.9828 -12.8145
RightLeg  80.8679 -1.81128 -16.41
RightFoot  -9.67951 -0.0991964 2.22165
RightToes  -1.16417e-010 0 -3.6325e-017
Spine  13.2316 1.52249 -5.3278
Spine1  4.23884 -1.24161 11.561
HEad  -19.6563 -7.206 11.2946
LeftShoulder1  6.69377 -9.57837 -44.5521
LeftArm  -21.5026 15.1992 -35.4288
LeftForeArm  35.1234 -26.5831 -3.83143
LeftHand  -0.244104 0.0205437 5.32207
RightShoulder  3.78528 6.08424 33.5314
RightArm  -38.958 -11.4873 24.2174
RightForeArm  -54.144 55.1606 19.2338
RightHand  -4.61493 12.8915 -29.0272
LeftUpLeg  -15.1621 16.0291 -3.92372
LeftLeg  31.3114 0.779117 0.870323
LeftFoot  -5.26439 -0.310076 6.40785
LeftToes  4.18335e-011 -7.14095e-012 4.81992e-012
131
root  -66.6535 39.8034 12.4476 173.093 -62.9202 176.619
RightUpLeg  -19.0475 -11.223 -8.50605
RightLeg  74.7709 -2.76307 -12.7669
RightFoot  -8.13166 -0.165927 3.88384
RightToes  -1.16417e-010 0 -3.6325e-017
Spine  14.305 1.01685 -3.96496
Spine1  3.21182 -1.56752 11.1333
HEad  -19.1597 -6.7193 10.7678
LeftShoulder1  7.06239 -10.673 -43.3315
LeftArm  -19.5555 8.15933 -34.7557
LeftForeArm  34.7351 -34.9885 -5.82609
LeftHand  -0.244104 0.0205437 5.32207
RightShoulder  3.79632 6.25288 32.9625
RightArm  -38.4349 -10.8998 28.3206
RightForeArm  -53.1936 52.7483 17.6342
RightHand  -5.06464 14.1768 -29.7017
LeftUpLeg  -11.519 15.1409 -2.87743
LeftLeg  25.7627 -0.59685 0.0297077
LeftFoot  -2.51873 -0.40216 5.50079
LeftToes  4.18335e-011 -7.14095e-012 4.81992e-012
132
root  -67.1451 40.5328 12.4157 171.84 -65.5482 178.914
RightUpLeg  -21.3355 -10.9863 -5.81033
RightLeg  64.8776 -4.15737 -10.15
RightFoot  -7.37597 -0.267403 6.32664
RightToes  -1.16417e-010 0 -3.6325e-017
Spine  15.4665 0.438101 -3.15731
Spine1  0.366057 -1.96088 11.3279
HEad  -18.0476 -6.53622 9.45326
LeftShoulder1  7.44528 -11.8847 -41.9943
LeftArm  -17.0635 1.98112 -33.9188
LeftForeArm  38.3804 -42.9675 -7.86579
LeftHand  -0.244104 0.0205437 5.32207
RightShoulder  3.66243 6.26544 31.5385
RightArm  -36.0651 -11.874 32.0923
RightForeArm  -52.5354 51.362 16.8007
RightHand  -5.53446 15.2914 -30.6637
LeftUpLeg  -9.57128 13.8044 -2.28105
LeftLeg  21.3771 -1.90996 -0.482544
LeftFoot  0.826644 -0.275295 2.5497
LeftToes  4.18335e-011 -7.14095e-012 4.81992e-012
133
root  -67.6646 41.0251 12.3216 170.607 -69.0551 -178.298
RightUpLeg  -22.0981 -10.7532 -4.5887
RightLeg  52.7029 -5.8466 -8.57435
RightFoot  -7.47398 -0.283083 6.89058
RightToes  -1.16417e-010 0 -3.6325e-017
Spine  15.406 -0.190702 -3.23972
Spine1  -1.01943 -2.77172 12.5478
HEad  -18.2222 -6.13511 8.14732
LeftShoulder1  7.44487 -12.1177 -41.324
LeftArm  -15.2978 -6.17914 -33.5085
LeftForeArm  43.6086 -49.018 -9.63513
LeftHand  -0.244104 0.0205437 5.32207
RightShoulder  3.56664 6.22867 30.6893
RightArm  -31.85 -12.7004 33.701
RightForeArm  -51.3379 51.5826 16.9111
RightHand  -5.32349 14.8415 -30.1664
LeftUpLeg  -8.97884 13.3813 -1.86909
LeftLeg  17.8721 -0.909052 -0.135624
LeftFoot  1.87315 0.0360968 -0.477459
LeftToes  4.18335e-011 -7.14095e-012 4.81992e-012
